<svg width="2484" height="394" viewBox="0 0 2484 394" fill="none" xmlns="http://www.w3.org/2000/svg">
<mask id="path-1-inside-1_195_81" fill="white">
<path fill-rule="evenodd" clip-rule="evenodd" d="M1204 43H1V302.066C22.6367 329.312 64.3922 328.088 84.3956 299.621L121 247.53C139.858 220.034 182.299 227.416 190.765 259.664L212.583 342.766C219.288 368.306 242.373 386.112 268.778 386.112C295.922 386.112 319.09 366.491 323.559 339.717L334.136 276.354C338.764 248.627 377.9 246.73 385.19 273.878L385.812 276.197C393.926 306.417 427.371 321.971 455.709 308.704C469.095 302.437 484.972 309.01 490.011 322.904L498.481 346.257C513.039 386.398 568.896 388.815 586.867 350.082L610.886 298.317C627.094 263.384 677.347 265.166 691.042 301.158L696.394 315.225C699.974 324.633 711.63 327.902 719.58 321.727C734.209 310.365 755.682 318.334 759.358 336.489L761.98 349.44C768.686 382.565 814.85 385.6 825.835 353.638L865.321 238.754C874.549 211.902 912.455 211.707 921.96 238.461L942.296 295.699L949.284 315.367C961.751 350.457 1012.22 347.844 1021 311.655L1032.85 263.029C1041.15 241.421 1068.36 234.574 1085.9 249.682L1086.93 250.569L1088.96 252.163C1111.46 269.795 1143.45 268.43 1164.36 248.946C1172.28 241.577 1185.21 245.986 1186.97 256.653L1204.28 361.417C1207.3 379.695 1223.11 393.102 1241.63 393.102C1241.92 393.102 1242.21 393.099 1242.5 393.092C1242.79 393.099 1243.08 393.102 1243.37 393.102C1261.89 393.102 1277.7 379.695 1280.72 361.417L1298.03 256.653C1299.79 245.986 1312.72 241.577 1320.64 248.946C1341.55 268.43 1373.54 269.795 1396.04 252.163L1398.07 250.569L1399.1 249.682C1416.64 234.574 1443.85 241.421 1452.15 263.029L1464 311.655C1472.78 347.844 1523.25 350.457 1535.72 315.367L1542.7 295.699L1563.04 238.461C1572.55 211.707 1610.45 211.902 1619.68 238.754L1659.17 353.638C1670.15 385.6 1716.31 382.565 1723.02 349.44L1725.64 336.489C1729.32 318.334 1750.79 310.365 1765.42 321.727C1773.37 327.902 1785.03 324.633 1788.61 315.225L1793.96 301.158C1807.65 265.166 1857.91 263.384 1874.11 298.317L1898.13 350.082C1916.1 388.815 1971.96 386.398 1986.52 346.257L1994.99 322.904C2000.03 309.01 2015.91 302.437 2029.29 308.704C2057.63 321.971 2091.07 306.417 2099.19 276.197L2099.81 273.878C2107.1 246.73 2146.24 248.627 2150.86 276.354L2161.44 339.717C2165.91 366.491 2189.08 386.112 2216.22 386.112C2242.63 386.112 2265.71 368.306 2272.42 342.766L2294.23 259.664C2302.7 227.416 2345.14 220.034 2364 247.53L2400.6 299.621C2420.61 328.088 2462.36 329.312 2484 302.066V43H1281H1204Z"/>
</mask>
<path fill-rule="evenodd" clip-rule="evenodd" d="M1204 43H1V302.066C22.6367 329.312 64.3922 328.088 84.3956 299.621L121 247.53C139.858 220.034 182.299 227.416 190.765 259.664L212.583 342.766C219.288 368.306 242.373 386.112 268.778 386.112C295.922 386.112 319.09 366.491 323.559 339.717L334.136 276.354C338.764 248.627 377.9 246.73 385.19 273.878L385.812 276.197C393.926 306.417 427.371 321.971 455.709 308.704C469.095 302.437 484.972 309.01 490.011 322.904L498.481 346.257C513.039 386.398 568.896 388.815 586.867 350.082L610.886 298.317C627.094 263.384 677.347 265.166 691.042 301.158L696.394 315.225C699.974 324.633 711.63 327.902 719.58 321.727C734.209 310.365 755.682 318.334 759.358 336.489L761.98 349.44C768.686 382.565 814.85 385.6 825.835 353.638L865.321 238.754C874.549 211.902 912.455 211.707 921.96 238.461L942.296 295.699L949.284 315.367C961.751 350.457 1012.22 347.844 1021 311.655L1032.85 263.029C1041.15 241.421 1068.36 234.574 1085.9 249.682L1086.93 250.569L1088.96 252.163C1111.46 269.795 1143.45 268.43 1164.36 248.946C1172.28 241.577 1185.21 245.986 1186.97 256.653L1204.28 361.417C1207.3 379.695 1223.11 393.102 1241.63 393.102C1241.92 393.102 1242.21 393.099 1242.5 393.092C1242.79 393.099 1243.08 393.102 1243.37 393.102C1261.89 393.102 1277.7 379.695 1280.72 361.417L1298.03 256.653C1299.79 245.986 1312.72 241.577 1320.64 248.946C1341.55 268.43 1373.54 269.795 1396.04 252.163L1398.07 250.569L1399.1 249.682C1416.64 234.574 1443.85 241.421 1452.15 263.029L1464 311.655C1472.78 347.844 1523.25 350.457 1535.72 315.367L1542.7 295.699L1563.04 238.461C1572.55 211.707 1610.45 211.902 1619.68 238.754L1659.17 353.638C1670.15 385.6 1716.31 382.565 1723.02 349.44L1725.64 336.489C1729.32 318.334 1750.79 310.365 1765.42 321.727C1773.37 327.902 1785.03 324.633 1788.61 315.225L1793.96 301.158C1807.65 265.166 1857.91 263.384 1874.11 298.317L1898.13 350.082C1916.1 388.815 1971.96 386.398 1986.52 346.257L1994.99 322.904C2000.03 309.01 2015.91 302.437 2029.29 308.704C2057.63 321.971 2091.07 306.417 2099.19 276.197L2099.81 273.878C2107.1 246.73 2146.24 248.627 2150.86 276.354L2161.44 339.717C2165.91 366.491 2189.08 386.112 2216.22 386.112C2242.63 386.112 2265.71 368.306 2272.42 342.766L2294.23 259.664C2302.7 227.416 2345.14 220.034 2364 247.53L2400.6 299.621C2420.61 328.088 2462.36 329.312 2484 302.066V43H1281H1204Z" fill="#FF8CE1"/>
<path d="M1 43V41H-1V43H1ZM1 302.066H-1V302.764L-0.566211 303.31L1 302.066ZM84.3956 299.621L82.7592 298.471L82.7592 298.471L84.3956 299.621ZM121 247.53L122.636 248.68L122.643 248.671L122.649 248.661L121 247.53ZM190.765 259.664L192.7 259.157L192.7 259.157L190.765 259.664ZM212.583 342.766L210.648 343.274L210.648 343.274L212.583 342.766ZM323.559 339.717L325.532 340.046L325.532 340.046L323.559 339.717ZM334.136 276.354L332.163 276.025L332.163 276.025L334.136 276.354ZM385.19 273.878L387.121 273.36L387.121 273.36L385.19 273.878ZM385.812 276.197L387.744 275.678L387.744 275.678L385.812 276.197ZM455.709 308.704L456.557 310.515L456.557 310.515L455.709 308.704ZM490.011 322.904L491.891 322.222L491.891 322.222L490.011 322.904ZM498.481 346.257L500.361 345.575L500.361 345.575L498.481 346.257ZM586.867 350.082L588.681 350.924L588.681 350.924L586.867 350.082ZM610.886 298.317L609.072 297.475L609.072 297.475L610.886 298.317ZM691.042 301.158L692.911 300.447L692.911 300.447L691.042 301.158ZM696.394 315.225L698.263 314.513L698.263 314.513L696.394 315.225ZM719.58 321.727L718.353 320.148L718.353 320.148L719.58 321.727ZM759.358 336.489L757.397 336.886L757.397 336.886L759.358 336.489ZM761.98 349.44L763.94 349.044L763.94 349.044L761.98 349.44ZM825.835 353.638L823.943 352.988L823.943 352.988L825.835 353.638ZM865.321 238.754L863.429 238.104L863.429 238.104L865.321 238.754ZM921.96 238.461L923.845 237.792L923.845 237.792L921.96 238.461ZM942.296 295.699L944.181 295.03L944.181 295.03L942.296 295.699ZM949.284 315.367L947.399 316.037L947.399 316.037L949.284 315.367ZM1021 311.655L1019.06 311.181L1019.06 311.183L1021 311.655ZM1032.85 263.029L1030.98 262.312L1030.94 262.432L1030.91 262.556L1032.85 263.029ZM1085.9 249.682L1084.59 251.197L1084.59 251.197L1085.9 249.682ZM1086.93 250.569L1085.62 252.084L1085.66 252.115L1085.69 252.143L1086.93 250.569ZM1088.96 252.163L1087.73 253.737L1087.73 253.737L1088.96 252.163ZM1164.36 248.946L1163 247.483L1163 247.483L1164.36 248.946ZM1186.97 256.653L1185 256.979L1185 256.979L1186.97 256.653ZM1204.28 361.417L1206.26 361.091L1206.26 361.091L1204.28 361.417ZM1242.5 393.092L1242.55 391.093L1242.5 391.092L1242.45 391.093L1242.5 393.092ZM1280.72 361.417L1278.74 361.091L1278.74 361.091L1280.72 361.417ZM1298.03 256.653L1300 256.979L1300 256.979L1298.03 256.653ZM1320.64 248.946L1322 247.483L1322 247.483L1320.64 248.946ZM1396.04 252.163L1397.27 253.737L1397.27 253.737L1396.04 252.163ZM1398.07 250.569L1399.31 252.143L1399.34 252.115L1399.38 252.084L1398.07 250.569ZM1399.1 249.682L1400.41 251.197L1400.41 251.197L1399.1 249.682ZM1452.15 263.029L1454.09 262.556L1454.06 262.432L1454.02 262.312L1452.15 263.029ZM1464 311.655L1465.94 311.183L1465.94 311.181L1464 311.655ZM1535.72 315.367L1533.83 314.698L1533.83 314.698L1535.72 315.367ZM1542.7 295.699L1540.82 295.03L1540.82 295.03L1542.7 295.699ZM1563.04 238.461L1564.92 239.131L1564.92 239.131L1563.04 238.461ZM1619.68 238.754L1617.79 239.404L1617.79 239.404L1619.68 238.754ZM1659.17 353.638L1657.27 354.289L1657.27 354.289L1659.17 353.638ZM1723.02 349.44L1724.98 349.837L1724.98 349.837L1723.02 349.44ZM1725.64 336.489L1723.68 336.092L1723.68 336.092L1725.64 336.489ZM1765.42 321.727L1764.19 323.307L1764.19 323.307L1765.42 321.727ZM1788.61 315.225L1790.48 315.936L1790.48 315.936L1788.61 315.225ZM1793.96 301.158L1792.09 300.447L1792.09 300.447L1793.96 301.158ZM1874.11 298.317L1875.93 297.475L1875.93 297.475L1874.11 298.317ZM1898.13 350.082L1896.32 350.924L1896.32 350.924L1898.13 350.082ZM1986.52 346.257L1988.4 346.939L1988.4 346.939L1986.52 346.257ZM1994.99 322.904L1993.11 322.222L1993.11 322.222L1994.99 322.904ZM2029.29 308.704L2030.14 306.892L2030.14 306.892L2029.29 308.704ZM2099.19 276.197L2097.26 275.678L2097.26 275.678L2099.19 276.197ZM2099.81 273.878L2101.74 274.397L2101.74 274.397L2099.81 273.878ZM2150.86 276.354L2148.89 276.683L2148.89 276.683L2150.86 276.354ZM2161.44 339.717L2163.41 339.388L2163.41 339.388L2161.44 339.717ZM2272.42 342.766L2274.35 343.274L2274.35 343.274L2272.42 342.766ZM2294.23 259.664L2292.3 259.157L2292.3 259.157L2294.23 259.664ZM2364 247.53L2362.35 248.661L2362.36 248.671L2362.36 248.68L2364 247.53ZM2400.6 299.621L2402.24 298.471L2402.24 298.471L2400.6 299.621ZM2484 302.066L2485.57 303.31L2486 302.764V302.066H2484ZM2484 43H2486V41H2484V43ZM1 45H1204V41H1V45ZM3 302.066V43H-1V302.066H3ZM82.7592 298.471C63.524 325.845 23.372 327.022 2.56621 300.822L-0.566211 303.31C21.9014 331.602 65.2604 330.331 86.0319 300.771L82.7592 298.471ZM119.364 246.38L82.7592 298.471L86.0319 300.771L122.636 248.68L119.364 246.38ZM192.7 259.157C183.798 225.252 139.177 217.491 119.351 246.399L122.649 248.661C140.538 222.578 180.799 229.581 188.831 260.172L192.7 259.157ZM214.517 342.258L192.7 259.157L188.831 260.172L210.648 343.274L214.517 342.258ZM268.778 384.112C243.281 384.112 220.992 366.919 214.517 342.258L210.648 343.274C217.584 369.693 241.464 388.112 268.778 388.112V384.112ZM321.586 339.388C317.278 365.198 294.945 384.112 268.778 384.112V388.112C296.9 388.112 320.902 367.785 325.532 340.046L321.586 339.388ZM332.163 276.025L321.586 339.388L325.532 340.046L336.109 276.683L332.163 276.025ZM387.121 273.36C379.275 244.135 337.145 246.178 332.163 276.025L336.109 276.683C340.383 251.077 376.526 249.324 383.258 274.397L387.121 273.36ZM387.744 275.678L387.121 273.36L383.258 274.397L383.881 276.715L387.744 275.678ZM454.861 306.892C427.65 319.632 395.535 304.696 387.744 275.678L383.881 276.715C392.317 308.137 427.092 324.31 456.557 310.515L454.861 306.892ZM491.891 322.222C486.452 307.223 469.311 300.127 454.861 306.892L456.557 310.515C468.878 304.747 483.493 310.797 488.131 323.586L491.891 322.222ZM500.361 345.575L491.891 322.222L488.131 323.586L496.601 346.939L500.361 345.575ZM585.053 349.24C567.832 386.354 514.311 384.038 500.361 345.575L496.601 346.939C511.768 388.757 569.959 391.276 588.681 350.924L585.053 349.24ZM609.072 297.475L585.053 349.24L588.681 350.924L612.7 299.159L609.072 297.475ZM692.911 300.447C678.587 262.8 626.025 260.937 609.072 297.475L612.7 299.159C628.164 265.831 676.107 267.531 689.173 301.869L692.911 300.447ZM698.263 314.513L692.911 300.447L689.173 301.869L694.525 315.936L698.263 314.513ZM718.353 320.148C711.464 325.498 701.365 322.665 698.263 314.513L694.525 315.936C698.582 326.6 711.795 330.306 720.806 323.307L718.353 320.148ZM761.318 336.092C757.348 316.482 734.154 307.875 718.353 320.148L720.806 323.307C734.264 312.855 754.016 320.185 757.397 336.886L761.318 336.092ZM763.94 349.044L761.318 336.092L757.397 336.886L760.02 349.837L763.94 349.044ZM823.943 352.988C813.621 383.022 770.242 380.171 763.94 349.044L760.02 349.837C767.13 384.96 816.078 388.178 827.726 354.289L823.943 352.988ZM863.429 238.104L823.943 352.988L827.726 354.289L867.212 239.404L863.429 238.104ZM923.845 237.792C913.706 209.253 873.273 209.462 863.429 238.104L867.212 239.404C875.826 214.342 911.204 214.16 920.076 239.131L923.845 237.792ZM944.181 295.03L923.845 237.792L920.076 239.131L940.412 296.369L944.181 295.03ZM951.169 314.698L944.181 295.03L940.412 296.369L947.399 316.037L951.169 314.698ZM1019.06 311.183C1010.75 345.441 962.97 347.914 951.169 314.698L947.399 316.037C960.532 353 1013.7 350.247 1022.94 312.126L1019.06 311.183ZM1030.91 262.556L1019.06 311.181L1022.94 312.128L1034.79 263.503L1030.91 262.556ZM1087.2 248.167C1068.62 232.155 1039.78 239.412 1030.98 262.312L1034.72 263.746C1042.52 243.43 1068.1 236.993 1084.59 251.197L1087.2 248.167ZM1088.23 249.054L1087.2 248.167L1084.59 251.197L1085.62 252.084L1088.23 249.054ZM1090.19 250.589L1088.16 248.995L1085.69 252.143L1087.73 253.737L1090.19 250.589ZM1163 247.483C1142.8 266.296 1111.92 267.613 1090.19 250.589L1087.73 253.737C1111 271.976 1144.09 270.565 1165.73 250.41L1163 247.483ZM1188.94 256.327C1186.92 244.086 1172.08 239.026 1163 247.483L1165.73 250.41C1172.47 244.128 1183.5 247.886 1185 256.979L1188.94 256.327ZM1206.26 361.091L1188.94 256.327L1185 256.979L1202.31 361.744L1206.26 361.091ZM1241.63 391.102C1224.09 391.102 1209.12 378.403 1206.26 361.091L1202.31 361.744C1205.49 380.987 1222.13 395.102 1241.63 395.102V391.102ZM1242.45 391.093C1242.18 391.099 1241.91 391.102 1241.63 391.102V395.102C1241.94 395.102 1242.24 395.099 1242.55 395.092L1242.45 391.093ZM1242.45 395.092C1242.76 395.099 1243.06 395.102 1243.37 395.102V391.102C1243.09 391.102 1242.82 391.099 1242.55 391.093L1242.45 395.092ZM1243.37 395.102C1262.87 395.102 1279.51 380.987 1282.69 361.744L1278.74 361.091C1275.88 378.403 1260.91 391.102 1243.37 391.102V395.102ZM1282.69 361.744L1300 256.979L1296.06 256.327L1278.74 361.091L1282.69 361.744ZM1300 256.979C1301.5 247.886 1312.53 244.128 1319.27 250.41L1322 247.483C1312.92 239.026 1298.08 244.086 1296.06 256.327L1300 256.979ZM1319.27 250.41C1340.91 270.565 1374 271.976 1397.27 253.737L1394.81 250.589C1373.08 267.613 1342.2 266.296 1322 247.483L1319.27 250.41ZM1397.27 253.737L1399.31 252.143L1396.84 248.995L1394.81 250.589L1397.27 253.737ZM1399.38 252.084L1400.41 251.197L1397.8 248.167L1396.77 249.054L1399.38 252.084ZM1400.41 251.197C1416.9 236.993 1442.48 243.43 1450.28 263.746L1454.02 262.312C1445.22 239.412 1416.38 232.155 1397.8 248.167L1400.41 251.197ZM1450.21 263.503L1462.06 312.128L1465.94 311.181L1454.09 262.556L1450.21 263.503ZM1462.06 312.126C1471.3 350.247 1524.47 353 1537.6 316.037L1533.83 314.698C1522.03 347.914 1474.25 345.441 1465.94 311.183L1462.06 312.126ZM1537.6 316.037L1544.59 296.369L1540.82 295.03L1533.83 314.698L1537.6 316.037ZM1544.59 296.369L1564.92 239.131L1561.15 237.792L1540.82 295.03L1544.59 296.369ZM1564.92 239.131C1573.8 214.16 1609.17 214.342 1617.79 239.404L1621.57 238.104C1611.73 209.462 1571.29 209.253 1561.15 237.792L1564.92 239.131ZM1617.79 239.404L1657.27 354.289L1661.06 352.988L1621.57 238.104L1617.79 239.404ZM1657.27 354.289C1668.92 388.178 1717.87 384.96 1724.98 349.837L1721.06 349.044C1714.76 380.171 1671.38 383.022 1661.06 352.988L1657.27 354.289ZM1724.98 349.837L1727.6 336.886L1723.68 336.092L1721.06 349.044L1724.98 349.837ZM1727.6 336.886C1730.98 320.185 1750.74 312.855 1764.19 323.307L1766.65 320.148C1750.85 307.875 1727.65 316.482 1723.68 336.092L1727.6 336.886ZM1764.19 323.307C1773.21 330.306 1786.42 326.6 1790.48 315.936L1786.74 314.513C1783.63 322.665 1773.54 325.498 1766.65 320.148L1764.19 323.307ZM1790.48 315.936L1795.83 301.869L1792.09 300.447L1786.74 314.513L1790.48 315.936ZM1795.83 301.869C1808.89 267.531 1856.84 265.831 1872.3 299.159L1875.93 297.475C1858.97 260.937 1806.41 262.8 1792.09 300.447L1795.83 301.869ZM1872.3 299.159L1896.32 350.924L1899.95 349.24L1875.93 297.475L1872.3 299.159ZM1896.32 350.924C1915.04 391.276 1973.23 388.757 1988.4 346.939L1984.64 345.575C1970.69 384.038 1917.17 386.354 1899.95 349.24L1896.32 350.924ZM1988.4 346.939L1996.87 323.586L1993.11 322.222L1984.64 345.575L1988.4 346.939ZM1996.87 323.586C2001.51 310.797 2016.12 304.747 2028.44 310.515L2030.14 306.892C2015.69 300.127 1998.55 307.223 1993.11 322.222L1996.87 323.586ZM2028.44 310.515C2057.91 324.31 2092.68 308.137 2101.12 276.715L2097.26 275.678C2089.47 304.696 2057.35 319.632 2030.14 306.892L2028.44 310.515ZM2101.12 276.715L2101.74 274.397L2097.88 273.36L2097.26 275.678L2101.12 276.715ZM2101.74 274.397C2108.47 249.324 2144.62 251.077 2148.89 276.683L2152.84 276.025C2147.85 246.178 2105.73 244.135 2097.88 273.36L2101.74 274.397ZM2148.89 276.683L2159.47 340.046L2163.41 339.388L2152.84 276.025L2148.89 276.683ZM2159.47 340.046C2164.1 367.785 2188.1 388.112 2216.22 388.112V384.112C2190.06 384.112 2167.72 365.198 2163.41 339.388L2159.47 340.046ZM2216.22 388.112C2243.54 388.112 2267.42 369.693 2274.35 343.274L2270.48 342.258C2264.01 366.919 2241.72 384.112 2216.22 384.112V388.112ZM2274.35 343.274L2296.17 260.172L2292.3 259.157L2270.48 342.258L2274.35 343.274ZM2296.17 260.172C2304.2 229.581 2344.46 222.578 2362.35 248.661L2365.65 246.399C2345.82 217.491 2301.2 225.252 2292.3 259.157L2296.17 260.172ZM2362.36 248.68L2398.97 300.771L2402.24 298.471L2365.64 246.38L2362.36 248.68ZM2398.97 300.771C2419.74 330.331 2463.1 331.602 2485.57 303.31L2482.43 300.822C2461.63 327.022 2421.48 325.845 2402.24 298.471L2398.97 300.771ZM2486 302.066V43H2482V302.066H2486ZM2484 41H1281V45H2484V41ZM1281 41H1204V45H1281V41Z" fill="#80006B" mask="url(#path-1-inside-1_195_81)"/>
<mask id="path-3-inside-2_195_81" fill="white">
<path fill-rule="evenodd" clip-rule="evenodd" d="M1203 0H0V259.066C21.6367 286.312 63.3922 285.088 83.3956 256.621L120 204.53C138.858 177.034 181.299 184.416 189.765 216.664L211.583 299.766C218.288 325.306 241.373 343.112 267.778 343.112C294.922 343.112 318.09 323.491 322.559 296.717L333.136 233.354C337.764 205.627 376.9 203.73 384.19 230.878L384.812 233.197C392.926 263.417 426.371 278.971 454.709 265.704C468.095 259.437 483.972 266.01 489.011 279.904L497.481 303.257C512.039 343.398 567.896 345.815 585.867 307.082L609.886 255.317C626.094 220.384 676.347 222.166 690.042 258.158L695.394 272.225C698.974 281.633 710.63 284.902 718.58 278.727C733.209 267.365 754.682 275.334 758.358 293.489L760.98 306.44C767.686 339.565 813.85 342.6 824.835 310.638L864.321 195.754C873.549 168.902 911.455 168.707 920.96 195.461L941.296 252.699L948.284 272.367C960.751 307.457 1011.22 304.844 1020 268.655L1031.85 220.029C1040.15 198.421 1067.36 191.574 1084.9 206.682L1085.93 207.569L1087.96 209.163C1110.46 226.795 1142.45 225.43 1163.36 205.946C1171.28 198.577 1184.21 202.986 1185.97 213.653L1203.28 318.417C1206.3 336.695 1222.11 350.102 1240.63 350.102C1240.92 350.102 1241.21 350.099 1241.5 350.092C1241.79 350.099 1242.08 350.102 1242.37 350.102C1260.89 350.102 1276.7 336.695 1279.72 318.417L1297.03 213.653C1298.79 202.986 1311.72 198.577 1319.64 205.946C1340.55 225.43 1372.54 226.795 1395.04 209.163L1397.07 207.569L1398.1 206.682C1415.64 191.574 1442.85 198.421 1451.15 220.029L1463 268.655C1471.78 304.844 1522.25 307.457 1534.72 272.367L1541.7 252.699L1562.04 195.461C1571.55 168.707 1609.45 168.902 1618.68 195.754L1658.17 310.638C1669.15 342.6 1715.31 339.565 1722.02 306.44L1724.64 293.489C1728.32 275.334 1749.79 267.365 1764.42 278.727C1772.37 284.902 1784.03 281.633 1787.61 272.225L1792.96 258.158C1806.65 222.166 1856.91 220.384 1873.11 255.317L1897.13 307.082C1915.1 345.815 1970.96 343.398 1985.52 303.257L1993.99 279.904C1999.03 266.01 2014.91 259.437 2028.29 265.704C2056.63 278.971 2090.07 263.417 2098.19 233.197L2098.81 230.878C2106.1 203.73 2145.24 205.627 2149.86 233.354L2160.44 296.717C2164.91 323.491 2188.08 343.112 2215.22 343.112C2241.63 343.112 2264.71 325.306 2271.42 299.766L2293.23 216.664C2301.7 184.416 2344.14 177.034 2363 204.53L2399.6 256.621C2419.61 285.088 2461.36 286.312 2483 259.066V0H1280H1203Z"/>
</mask>
<path fill-rule="evenodd" clip-rule="evenodd" d="M1203 0H0V259.066C21.6367 286.312 63.3922 285.088 83.3956 256.621L120 204.53C138.858 177.034 181.299 184.416 189.765 216.664L211.583 299.766C218.288 325.306 241.373 343.112 267.778 343.112C294.922 343.112 318.09 323.491 322.559 296.717L333.136 233.354C337.764 205.627 376.9 203.73 384.19 230.878L384.812 233.197C392.926 263.417 426.371 278.971 454.709 265.704C468.095 259.437 483.972 266.01 489.011 279.904L497.481 303.257C512.039 343.398 567.896 345.815 585.867 307.082L609.886 255.317C626.094 220.384 676.347 222.166 690.042 258.158L695.394 272.225C698.974 281.633 710.63 284.902 718.58 278.727C733.209 267.365 754.682 275.334 758.358 293.489L760.98 306.44C767.686 339.565 813.85 342.6 824.835 310.638L864.321 195.754C873.549 168.902 911.455 168.707 920.96 195.461L941.296 252.699L948.284 272.367C960.751 307.457 1011.22 304.844 1020 268.655L1031.85 220.029C1040.15 198.421 1067.36 191.574 1084.9 206.682L1085.93 207.569L1087.96 209.163C1110.46 226.795 1142.45 225.43 1163.36 205.946C1171.28 198.577 1184.21 202.986 1185.97 213.653L1203.28 318.417C1206.3 336.695 1222.11 350.102 1240.63 350.102C1240.92 350.102 1241.21 350.099 1241.5 350.092C1241.79 350.099 1242.08 350.102 1242.37 350.102C1260.89 350.102 1276.7 336.695 1279.72 318.417L1297.03 213.653C1298.79 202.986 1311.72 198.577 1319.64 205.946C1340.55 225.43 1372.54 226.795 1395.04 209.163L1397.07 207.569L1398.1 206.682C1415.64 191.574 1442.85 198.421 1451.15 220.029L1463 268.655C1471.78 304.844 1522.25 307.457 1534.72 272.367L1541.7 252.699L1562.04 195.461C1571.55 168.707 1609.45 168.902 1618.68 195.754L1658.17 310.638C1669.15 342.6 1715.31 339.565 1722.02 306.44L1724.64 293.489C1728.32 275.334 1749.79 267.365 1764.42 278.727C1772.37 284.902 1784.03 281.633 1787.61 272.225L1792.96 258.158C1806.65 222.166 1856.91 220.384 1873.11 255.317L1897.13 307.082C1915.1 345.815 1970.96 343.398 1985.52 303.257L1993.99 279.904C1999.03 266.01 2014.91 259.437 2028.29 265.704C2056.63 278.971 2090.07 263.417 2098.19 233.197L2098.81 230.878C2106.1 203.73 2145.24 205.627 2149.86 233.354L2160.44 296.717C2164.91 323.491 2188.08 343.112 2215.22 343.112C2241.63 343.112 2264.71 325.306 2271.42 299.766L2293.23 216.664C2301.7 184.416 2344.14 177.034 2363 204.53L2399.6 256.621C2419.61 285.088 2461.36 286.312 2483 259.066V0H1280H1203Z" fill="#FFCBF2"/>
<path d="M0 0V-2H-2V0H0ZM0 259.066H-2V259.764L-1.56621 260.31L0 259.066ZM83.3956 256.621L81.7592 255.471L81.7592 255.471L83.3956 256.621ZM120 204.53L121.636 205.68L121.643 205.671L121.649 205.661L120 204.53ZM189.765 216.664L191.7 216.157L191.7 216.157L189.765 216.664ZM211.583 299.766L209.648 300.274L209.648 300.274L211.583 299.766ZM322.559 296.717L324.532 297.046L324.532 297.046L322.559 296.717ZM333.136 233.354L331.163 233.025L331.163 233.025L333.136 233.354ZM384.19 230.878L386.121 230.36L386.121 230.36L384.19 230.878ZM384.812 233.197L386.744 232.678L386.744 232.678L384.812 233.197ZM454.709 265.704L455.557 267.515L455.557 267.515L454.709 265.704ZM489.011 279.904L490.891 279.222L490.891 279.222L489.011 279.904ZM497.481 303.257L499.361 302.575L499.361 302.575L497.481 303.257ZM585.867 307.082L587.681 307.924L587.681 307.924L585.867 307.082ZM609.886 255.317L608.072 254.475L608.072 254.475L609.886 255.317ZM690.042 258.158L691.911 257.447L691.911 257.447L690.042 258.158ZM695.394 272.225L697.263 271.513L697.263 271.513L695.394 272.225ZM718.58 278.727L717.353 277.148L717.353 277.148L718.58 278.727ZM758.358 293.489L756.397 293.886L756.397 293.886L758.358 293.489ZM760.98 306.44L762.94 306.044L762.94 306.044L760.98 306.44ZM824.835 310.638L822.943 309.988L822.943 309.988L824.835 310.638ZM864.321 195.754L862.429 195.104L862.429 195.104L864.321 195.754ZM920.96 195.461L922.845 194.792L922.845 194.792L920.96 195.461ZM941.296 252.699L943.181 252.03L943.181 252.03L941.296 252.699ZM948.284 272.367L946.399 273.037L946.399 273.037L948.284 272.367ZM1020 268.655L1018.06 268.181L1018.06 268.183L1020 268.655ZM1031.85 220.029L1029.98 219.312L1029.94 219.432L1029.91 219.556L1031.85 220.029ZM1084.9 206.682L1083.59 208.197L1083.59 208.197L1084.9 206.682ZM1085.93 207.569L1084.62 209.084L1084.66 209.115L1084.69 209.143L1085.93 207.569ZM1087.96 209.163L1086.73 210.737L1086.73 210.737L1087.96 209.163ZM1163.36 205.946L1162 204.483L1162 204.483L1163.36 205.946ZM1185.97 213.653L1184 213.979L1184 213.979L1185.97 213.653ZM1203.28 318.417L1205.26 318.091L1205.26 318.091L1203.28 318.417ZM1241.5 350.092L1241.55 348.093L1241.5 348.092L1241.45 348.093L1241.5 350.092ZM1279.72 318.417L1277.74 318.091L1277.74 318.091L1279.72 318.417ZM1297.03 213.653L1299 213.979L1299 213.979L1297.03 213.653ZM1319.64 205.946L1321 204.483L1321 204.483L1319.64 205.946ZM1395.04 209.163L1396.27 210.737L1396.27 210.737L1395.04 209.163ZM1397.07 207.569L1398.31 209.143L1398.34 209.115L1398.38 209.084L1397.07 207.569ZM1398.1 206.682L1399.41 208.197L1399.41 208.197L1398.1 206.682ZM1451.15 220.029L1453.09 219.556L1453.06 219.432L1453.02 219.312L1451.15 220.029ZM1463 268.655L1464.94 268.183L1464.94 268.181L1463 268.655ZM1534.72 272.367L1532.83 271.698L1532.83 271.698L1534.72 272.367ZM1541.7 252.699L1539.82 252.03L1539.82 252.03L1541.7 252.699ZM1562.04 195.461L1563.92 196.131L1563.92 196.131L1562.04 195.461ZM1618.68 195.754L1616.79 196.404L1616.79 196.404L1618.68 195.754ZM1658.17 310.638L1656.27 311.289L1656.27 311.289L1658.17 310.638ZM1722.02 306.44L1723.98 306.837L1723.98 306.837L1722.02 306.44ZM1724.64 293.489L1722.68 293.092L1722.68 293.092L1724.64 293.489ZM1764.42 278.727L1763.19 280.307L1763.19 280.307L1764.42 278.727ZM1787.61 272.225L1789.48 272.936L1789.48 272.936L1787.61 272.225ZM1792.96 258.158L1791.09 257.447L1791.09 257.447L1792.96 258.158ZM1873.11 255.317L1874.93 254.475L1874.93 254.475L1873.11 255.317ZM1897.13 307.082L1895.32 307.924L1895.32 307.924L1897.13 307.082ZM1985.52 303.257L1987.4 303.939L1987.4 303.939L1985.52 303.257ZM1993.99 279.904L1992.11 279.222L1992.11 279.222L1993.99 279.904ZM2028.29 265.704L2029.14 263.892L2029.14 263.892L2028.29 265.704ZM2098.19 233.197L2096.26 232.678L2096.26 232.678L2098.19 233.197ZM2098.81 230.878L2100.74 231.397L2100.74 231.397L2098.81 230.878ZM2149.86 233.354L2147.89 233.683L2147.89 233.683L2149.86 233.354ZM2160.44 296.717L2162.41 296.388L2162.41 296.388L2160.44 296.717ZM2271.42 299.766L2273.35 300.274L2273.35 300.274L2271.42 299.766ZM2293.23 216.664L2291.3 216.157L2291.3 216.157L2293.23 216.664ZM2363 204.53L2361.35 205.661L2361.36 205.671L2361.36 205.68L2363 204.53ZM2399.6 256.621L2401.24 255.471L2401.24 255.471L2399.6 256.621ZM2483 259.066L2484.57 260.31L2485 259.764V259.066H2483ZM2483 0H2485V-2H2483V0ZM0 2H1203V-2H0V2ZM2 259.066V0H-2V259.066H2ZM81.7592 255.471C62.524 282.845 22.372 284.022 1.56621 257.822L-1.56621 260.31C20.9014 288.602 64.2604 287.331 85.0319 257.771L81.7592 255.471ZM118.364 203.38L81.7592 255.471L85.0319 257.771L121.636 205.68L118.364 203.38ZM191.7 216.157C182.798 182.252 138.177 174.491 118.351 203.399L121.649 205.661C139.538 179.578 179.799 186.581 187.831 217.172L191.7 216.157ZM213.517 299.258L191.7 216.157L187.831 217.172L209.648 300.274L213.517 299.258ZM267.778 341.112C242.281 341.112 219.992 323.919 213.517 299.258L209.648 300.274C216.584 326.693 240.464 345.112 267.778 345.112V341.112ZM320.586 296.388C316.278 322.198 293.945 341.112 267.778 341.112V345.112C295.9 345.112 319.902 324.785 324.532 297.046L320.586 296.388ZM331.163 233.025L320.586 296.388L324.532 297.046L335.109 233.683L331.163 233.025ZM386.121 230.36C378.275 201.135 336.145 203.178 331.163 233.025L335.109 233.683C339.383 208.077 375.526 206.324 382.258 231.397L386.121 230.36ZM386.744 232.678L386.121 230.36L382.258 231.397L382.881 233.715L386.744 232.678ZM453.861 263.892C426.65 276.632 394.535 261.696 386.744 232.678L382.881 233.715C391.317 265.137 426.092 281.31 455.557 267.515L453.861 263.892ZM490.891 279.222C485.452 264.223 468.311 257.127 453.861 263.892L455.557 267.515C467.878 261.747 482.493 267.797 487.131 280.586L490.891 279.222ZM499.361 302.575L490.891 279.222L487.131 280.586L495.601 303.939L499.361 302.575ZM584.053 306.24C566.832 343.354 513.311 341.038 499.361 302.575L495.601 303.939C510.768 345.757 568.959 348.276 587.681 307.924L584.053 306.24ZM608.072 254.475L584.053 306.24L587.681 307.924L611.7 256.159L608.072 254.475ZM691.911 257.447C677.587 219.8 625.025 217.937 608.072 254.475L611.7 256.159C627.164 222.831 675.107 224.531 688.173 258.869L691.911 257.447ZM697.263 271.513L691.911 257.447L688.173 258.869L693.525 272.936L697.263 271.513ZM717.353 277.148C710.464 282.498 700.365 279.665 697.263 271.513L693.525 272.936C697.582 283.6 710.795 287.306 719.806 280.307L717.353 277.148ZM760.318 293.092C756.348 273.482 733.154 264.875 717.353 277.148L719.806 280.307C733.264 269.855 753.016 277.185 756.397 293.886L760.318 293.092ZM762.94 306.044L760.318 293.092L756.397 293.886L759.02 306.837L762.94 306.044ZM822.943 309.988C812.621 340.022 769.242 337.171 762.94 306.044L759.02 306.837C766.13 341.96 815.078 345.178 826.726 311.289L822.943 309.988ZM862.429 195.104L822.943 309.988L826.726 311.289L866.212 196.404L862.429 195.104ZM922.845 194.792C912.706 166.253 872.273 166.462 862.429 195.104L866.212 196.404C874.826 171.342 910.204 171.16 919.076 196.131L922.845 194.792ZM943.181 252.03L922.845 194.792L919.076 196.131L939.412 253.369L943.181 252.03ZM950.169 271.698L943.181 252.03L939.412 253.369L946.399 273.037L950.169 271.698ZM1018.06 268.183C1009.75 302.441 961.97 304.914 950.169 271.698L946.399 273.037C959.532 310 1012.7 307.247 1021.94 269.126L1018.06 268.183ZM1029.91 219.556L1018.06 268.181L1021.94 269.128L1033.79 220.503L1029.91 219.556ZM1086.2 205.167C1067.62 189.155 1038.78 196.412 1029.98 219.312L1033.72 220.746C1041.52 200.43 1067.1 193.993 1083.59 208.197L1086.2 205.167ZM1087.23 206.054L1086.2 205.167L1083.59 208.197L1084.62 209.084L1087.23 206.054ZM1089.19 207.589L1087.16 205.995L1084.69 209.143L1086.73 210.737L1089.19 207.589ZM1162 204.483C1141.8 223.296 1110.92 224.613 1089.19 207.589L1086.73 210.737C1110 228.976 1143.09 227.565 1164.73 207.41L1162 204.483ZM1187.94 213.327C1185.92 201.086 1171.08 196.026 1162 204.483L1164.73 207.41C1171.47 201.128 1182.5 204.886 1184 213.979L1187.94 213.327ZM1205.26 318.091L1187.94 213.327L1184 213.979L1201.31 318.744L1205.26 318.091ZM1240.63 348.102C1223.09 348.102 1208.12 335.403 1205.26 318.091L1201.31 318.744C1204.49 337.987 1221.13 352.102 1240.63 352.102V348.102ZM1241.45 348.093C1241.18 348.099 1240.91 348.102 1240.63 348.102V352.102C1240.94 352.102 1241.24 352.099 1241.55 352.092L1241.45 348.093ZM1241.45 352.092C1241.76 352.099 1242.06 352.102 1242.37 352.102V348.102C1242.09 348.102 1241.82 348.099 1241.55 348.093L1241.45 352.092ZM1242.37 352.102C1261.87 352.102 1278.51 337.987 1281.69 318.744L1277.74 318.091C1274.88 335.403 1259.91 348.102 1242.37 348.102V352.102ZM1281.69 318.744L1299 213.979L1295.06 213.327L1277.74 318.091L1281.69 318.744ZM1299 213.979C1300.5 204.886 1311.53 201.128 1318.27 207.41L1321 204.483C1311.92 196.026 1297.08 201.086 1295.06 213.327L1299 213.979ZM1318.27 207.41C1339.91 227.565 1373 228.976 1396.27 210.737L1393.81 207.589C1372.08 224.613 1341.2 223.296 1321 204.483L1318.27 207.41ZM1396.27 210.737L1398.31 209.143L1395.84 205.995L1393.81 207.589L1396.27 210.737ZM1398.38 209.084L1399.41 208.197L1396.8 205.167L1395.77 206.054L1398.38 209.084ZM1399.41 208.197C1415.9 193.993 1441.48 200.43 1449.28 220.746L1453.02 219.312C1444.22 196.412 1415.38 189.155 1396.8 205.167L1399.41 208.197ZM1449.21 220.503L1461.06 269.128L1464.94 268.181L1453.09 219.556L1449.21 220.503ZM1461.06 269.126C1470.3 307.247 1523.47 310 1536.6 273.037L1532.83 271.698C1521.03 304.914 1473.25 302.441 1464.94 268.183L1461.06 269.126ZM1536.6 273.037L1543.59 253.369L1539.82 252.03L1532.83 271.698L1536.6 273.037ZM1543.59 253.369L1563.92 196.131L1560.15 194.792L1539.82 252.03L1543.59 253.369ZM1563.92 196.131C1572.8 171.16 1608.17 171.342 1616.79 196.404L1620.57 195.104C1610.73 166.462 1570.29 166.253 1560.15 194.792L1563.92 196.131ZM1616.79 196.404L1656.27 311.289L1660.06 309.988L1620.57 195.104L1616.79 196.404ZM1656.27 311.289C1667.92 345.178 1716.87 341.96 1723.98 306.837L1720.06 306.044C1713.76 337.171 1670.38 340.022 1660.06 309.988L1656.27 311.289ZM1723.98 306.837L1726.6 293.886L1722.68 293.092L1720.06 306.044L1723.98 306.837ZM1726.6 293.886C1729.98 277.185 1749.74 269.855 1763.19 280.307L1765.65 277.148C1749.85 264.875 1726.65 273.482 1722.68 293.092L1726.6 293.886ZM1763.19 280.307C1772.21 287.306 1785.42 283.6 1789.48 272.936L1785.74 271.513C1782.63 279.665 1772.54 282.498 1765.65 277.148L1763.19 280.307ZM1789.48 272.936L1794.83 258.869L1791.09 257.447L1785.74 271.513L1789.48 272.936ZM1794.83 258.869C1807.89 224.531 1855.84 222.831 1871.3 256.159L1874.93 254.475C1857.97 217.937 1805.41 219.8 1791.09 257.447L1794.83 258.869ZM1871.3 256.159L1895.32 307.924L1898.95 306.24L1874.93 254.475L1871.3 256.159ZM1895.32 307.924C1914.04 348.276 1972.23 345.757 1987.4 303.939L1983.64 302.575C1969.69 341.038 1916.17 343.354 1898.95 306.24L1895.32 307.924ZM1987.4 303.939L1995.87 280.586L1992.11 279.222L1983.64 302.575L1987.4 303.939ZM1995.87 280.586C2000.51 267.797 2015.12 261.747 2027.44 267.515L2029.14 263.892C2014.69 257.127 1997.55 264.223 1992.11 279.222L1995.87 280.586ZM2027.44 267.515C2056.91 281.31 2091.68 265.137 2100.12 233.715L2096.26 232.678C2088.47 261.696 2056.35 276.632 2029.14 263.892L2027.44 267.515ZM2100.12 233.715L2100.74 231.397L2096.88 230.36L2096.26 232.678L2100.12 233.715ZM2100.74 231.397C2107.47 206.324 2143.62 208.077 2147.89 233.683L2151.84 233.025C2146.85 203.178 2104.73 201.135 2096.88 230.36L2100.74 231.397ZM2147.89 233.683L2158.47 297.046L2162.41 296.388L2151.84 233.025L2147.89 233.683ZM2158.47 297.046C2163.1 324.785 2187.1 345.112 2215.22 345.112V341.112C2189.06 341.112 2166.72 322.198 2162.41 296.388L2158.47 297.046ZM2215.22 345.112C2242.54 345.112 2266.42 326.693 2273.35 300.274L2269.48 299.258C2263.01 323.919 2240.72 341.112 2215.22 341.112V345.112ZM2273.35 300.274L2295.17 217.172L2291.3 216.157L2269.48 299.258L2273.35 300.274ZM2295.17 217.172C2303.2 186.581 2343.46 179.578 2361.35 205.661L2364.65 203.399C2344.82 174.491 2300.2 182.252 2291.3 216.157L2295.17 217.172ZM2361.36 205.68L2397.97 257.771L2401.24 255.471L2364.64 203.38L2361.36 205.68ZM2397.97 257.771C2418.74 287.331 2462.1 288.602 2484.57 260.31L2481.43 257.822C2460.63 284.022 2420.48 282.845 2401.24 255.471L2397.97 257.771ZM2485 259.066V0H2481V259.066H2485ZM2483 -2H1280V2H2483V-2ZM1280 -2H1203V2H1280V-2Z" fill="#80006B" mask="url(#path-3-inside-2_195_81)"/>
</svg>
