<svg width="2633" height="357" viewBox="0 0 2633 357" fill="none" xmlns="http://www.w3.org/2000/svg">
<path d="M967.5 115.13L1036.21 92.8199C1192.74 41.9995 1360.95 39.5373 1518.9 85.7544L1540.9 92.1897C1688.53 135.389 1845.91 131.911 1991.49 82.232V82.232C2147.72 28.9195 2317.22 28.9113 2473.45 82.2086L2633 136.637V278.318L2165.13 256.811H1767.77H967.5V115.13Z" fill="#FFC2EF"/>
<g filter="url(#filter0_d_530_57)">
<path d="M4 115.13L72.7149 92.8199C229.243 41.9995 397.454 39.5373 555.402 85.7544L578.715 92.5757C725.491 135.524 881.952 132.066 1026.69 82.6759V82.6759C1183.67 29.1081 1354.07 29.6866 1510.68 84.3187L1599 115.13V256.811H1201.63H804.269H4V115.13Z" fill="#FFC2EF"/>
<path d="M451 183.066L571.37 137.041C713.453 82.713 870.572 82.6473 1012.7 136.856V136.856C1144.07 186.96 1288.58 190.814 1422.43 147.784L1444.7 140.624C1596.16 91.9312 1759.85 97.4667 1907.68 156.281L1975 183.066V284.797H1595.32H1215.65H451V183.066Z" fill="#FFAEEA"/>
<path d="M4 236.893L138.263 198.863C295.776 154.248 462.637 154.647 619.935 200.015L628.039 202.352C784.048 247.348 949.7 246.587 1105.29 200.157V200.157C1257.61 154.704 1419.64 152.999 1572.88 195.239L1650.57 216.653C1693.95 228.61 1724 268.064 1724 313.058V349H1295.49H866.986H4V236.893Z" fill="#FF84DF"/>
</g>
<path d="M1349 182.277L1424.02 148.152C1560.27 86.1695 1715.17 79.0972 1856.5 128.405V128.405L1943.69 171.597C2015.9 207.369 2099.8 211.242 2175 182.277V182.277L2385.11 116.246C2409.33 108.635 2434.13 103.032 2459.27 99.4945V99.4945C2498.92 93.9158 2539.13 93.5133 2578.88 98.297L2633 104.81V182.277V284.248H2313.11H1993.23H1349V182.277Z" fill="#FFAEEA"/>
<path d="M991.401 254.971C990.586 245.503 996.545 236.768 1005.66 234.075L1141.26 193.999C1281.2 152.642 1430.19 153.206 1569.82 195.621L1607.1 206.948C1744.21 248.6 1891.38 242.631 2024.66 190.015V190.015C2164.04 134.992 2318.4 131.056 2460.4 178.904L2632.5 236.893V349H2225.67H1818.84H999.5L991.401 254.971Z" fill="#FF84DF"/>
<defs>
<filter id="filter0_d_530_57" x="0" y="42.918" width="1979" height="314.082" filterUnits="userSpaceOnUse" color-interpolation-filters="sRGB">
<feFlood flood-opacity="0" result="BackgroundImageFix"/>
<feColorMatrix in="SourceAlpha" type="matrix" values="0 0 0 0 0 0 0 0 0 0 0 0 0 0 0 0 0 0 127 0" result="hardAlpha"/>
<feOffset dy="4"/>
<feGaussianBlur stdDeviation="2"/>
<feComposite in2="hardAlpha" operator="out"/>
<feColorMatrix type="matrix" values="0 0 0 0 0 0 0 0 0 0 0 0 0 0 0 0 0 0 0.25 0"/>
<feBlend mode="normal" in2="BackgroundImageFix" result="effect1_dropShadow_530_57"/>
<feBlend mode="normal" in="SourceGraphic" in2="effect1_dropShadow_530_57" result="shape"/>
</filter>
</defs>
</svg>
