<svg width="2633" height="326" viewBox="0 0 2633 326" fill="none" xmlns="http://www.w3.org/2000/svg">
<path d="M967.5 104.903L1035.88 84.6745C1193.22 38.1273 1360.35 35.8648 1518.9 78.1357L1541.38 84.1308C1689.29 123.565 1845.33 120.374 1991.5 74.9247V74.9247C2148.44 26.1267 2316.49 26.1192 2473.44 74.903L2633 124.5V253.597L2165.13 234H1767.77H967.5V104.903Z" fill="#FFC2EF"/>
<g filter="url(#filter0_d_530_56)">
<path d="M4 104.903L72.3791 84.6745C229.721 38.1273 396.852 35.8648 555.396 78.1357L579.199 84.4818C726.244 123.687 881.378 120.514 1026.7 75.3292V75.3292C1184.4 26.2929 1353.36 26.8251 1510.75 76.8539L1599 104.903V234H1201.63H804.269H4V104.903Z" fill="#FFC2EF"/>
<path d="M451 166.805L571.372 124.867C714.256 75.0863 869.765 75.0257 1012.69 124.695V124.695C1144.7 170.572 1287.73 174.114 1421.85 134.827L1444.69 128.135C1596.92 83.5428 1759.41 88.6487 1908.54 142.711L1975 166.805V259.5H1595.32H1215.65H451V166.805Z" fill="#FFAEEA"/>
<path d="M4 215.851L138.316 181.185C296.313 140.409 462.12 140.775 619.935 182.249L628.143 184.406C784.624 225.529 949.162 224.83 1105.29 182.379V182.379C1258.11 140.825 1419.06 139.262 1572.66 177.841L1648.36 196.853C1692.82 208.021 1724 247.995 1724 293.841V318H1295.49H866.986H4V215.851Z" fill="#FF84DF"/>
<path d="M4 104.903L72.3791 84.6745C229.721 38.1273 396.852 35.8648 555.396 78.1357L579.199 84.4818C726.244 123.687 881.378 120.514 1026.7 75.3292V75.3292C1184.4 26.2929 1353.36 26.8251 1510.75 76.8539L1599 104.903V234H1201.63H804.269H4V104.903Z" fill="#FFC2EF"/>
<path d="M451 166.805L571.372 124.867C714.256 75.0863 869.765 75.0257 1012.69 124.695V124.695C1144.7 170.572 1287.73 174.114 1421.85 134.827L1444.69 128.135C1596.92 83.5428 1759.41 88.6487 1908.54 142.711L1975 166.805V259.5H1595.32H1215.65H451V166.805Z" fill="#FFAEEA"/>
<path d="M4 215.851L138.316 181.185C296.313 140.409 462.12 140.775 619.935 182.249L628.143 184.406C784.624 225.529 949.162 224.83 1105.29 182.379V182.379C1258.11 140.825 1419.06 139.262 1572.66 177.841L1648.36 196.853C1692.82 208.021 1724 247.995 1724 293.841V318H1295.49H866.986H4V215.851Z" fill="#FF84DF"/>
</g>
<path d="M1349 166.086L1422.85 135.475C1560.69 78.3396 1714.3 71.7953 1856.5 117V117L1943.02 156.051C2016.18 189.077 2099.25 192.67 2175 166.086V166.086L2384.7 106.037C2409.2 99.0225 2434.19 93.8729 2459.47 90.6326V90.6326C2499.02 85.5621 2539.03 85.196 2578.66 89.5421L2633 95.5V166.086V259H2313.11H1993.23H1349V166.086Z" fill="#FFAEEA"/>
<path d="M991.589 234.305C990.671 224.599 996.885 215.646 1006.3 213.111L1141.37 176.738C1281.74 138.938 1429.68 139.455 1569.79 178.236L1608.01 188.816C1745.18 226.786 1890.75 221.306 2024.68 173.131V173.131C2164.78 122.738 2317.43 119.119 2459.76 162.815L2632.5 215.851V318H2225.67H1818.84H999.5L991.589 234.305Z" fill="#FF84DF"/>
<defs>
<filter id="filter0_d_530_56" x="0" y="38.938" width="1979" height="287.062" filterUnits="userSpaceOnUse" color-interpolation-filters="sRGB">
<feFlood flood-opacity="0" result="BackgroundImageFix"/>
<feColorMatrix in="SourceAlpha" type="matrix" values="0 0 0 0 0 0 0 0 0 0 0 0 0 0 0 0 0 0 127 0" result="hardAlpha"/>
<feOffset dy="4"/>
<feGaussianBlur stdDeviation="2"/>
<feComposite in2="hardAlpha" operator="out"/>
<feColorMatrix type="matrix" values="0 0 0 0 0 0 0 0 0 0 0 0 0 0 0 0 0 0 0.25 0"/>
<feBlend mode="normal" in2="BackgroundImageFix" result="effect1_dropShadow_530_56"/>
<feBlend mode="normal" in="SourceGraphic" in2="effect1_dropShadow_530_56" result="shape"/>
</filter>
</defs>
</svg>
